<?xml version="1.0" encoding="UTF-8"?>
<svg version="1.1" xmlns="http://www.w3.org/2000/svg" width="256" height="256">
<path d="M0 0 C1.09014329 -0.01041829 1.09014329 -0.01041829 2.20230967 -0.02104706 C4.63840458 -0.0393485 7.07352908 -0.02904462 9.50965881 -0.01878357 C11.25581594 -0.02584051 13.00196694 -0.03458457 14.74810791 -0.04489136 C19.4919571 -0.06742093 24.23547321 -0.06443726 28.97935557 -0.05556989 C32.938236 -0.05046486 36.89705357 -0.05774864 40.85592753 -0.06504196 C50.19466191 -0.08205243 59.53323295 -0.07846371 68.8719635 -0.06175232 C78.5094346 -0.04482944 88.14645282 -0.06066522 97.78387445 -0.0929752 C106.05576111 -0.11965754 114.32750668 -0.12695078 122.59943205 -0.11846012 C127.54098882 -0.11352697 132.48227305 -0.11576741 137.4237957 -0.13624763 C142.07050539 -0.15458347 146.71656289 -0.14867191 151.36323738 -0.12404823 C153.06883543 -0.11903364 154.77448299 -0.12254693 156.4800415 -0.13519669 C158.80849153 -0.15110037 161.13478682 -0.13620519 163.46313477 -0.11352539 C164.76596374 -0.11293908 166.06879271 -0.11235277 167.41110134 -0.1117487 C171.67671335 0.67786877 173.16093857 2.13097056 175.7950592 5.5146637 C176.36268616 8.8361969 176.36268616 8.8361969 176.28334045 12.56544495 C176.27272835 13.55365486 176.27272835 13.55365486 176.26190186 14.56182861 C176.23406899 16.65146404 176.17136739 18.73834846 176.1075592 20.8271637 C176.08246125 22.24965083 176.05965068 23.67218029 176.03919983 25.09474182 C175.98428366 28.56893231 175.89809606 32.0415292 175.7950592 35.5146637 C177.1268219 35.49109802 177.1268219 35.49109802 178.48548889 35.46705627 C181.78795741 35.41584684 185.0900024 35.37827514 188.39271545 35.34986877 C189.82051767 35.33480689 191.2482738 35.31435307 192.67591858 35.28834534 C194.73137293 35.25184528 196.78621426 35.23491204 198.8419342 35.22169495 C200.69576721 35.19812927 200.69576721 35.19812927 202.58705139 35.17408752 C206.03889334 35.5405502 207.39510993 36.05388788 209.7950592 38.5146637 C210.93423138 41.93218023 210.90844401 44.54954307 210.89271545 48.15138245 C210.8894928 49.45011292 210.88627014 50.74884338 210.88294983 52.08692932 C210.87459452 53.45867478 210.86612957 54.83041957 210.8575592 56.2021637 C210.85254256 57.58562565 210.84797994 58.96908933 210.84388733 60.35255432 C210.8320845 63.73996764 210.81561939 67.12729403 210.7950592 70.5146637 C212.1268219 70.4832428 212.1268219 70.4832428 213.48548889 70.45118713 C216.78800376 70.38290693 220.0897659 70.332815 223.39271545 70.29493713 C224.82057041 70.27485387 226.24834345 70.24758117 227.67591858 70.21290588 C229.73146288 70.16423701 231.78591776 70.14166402 233.8419342 70.1240387 C235.07782288 70.10309143 236.31371155 70.08214417 237.58705139 70.06056213 C241.47950309 70.61154845 242.38178474 71.48501264 244.7950592 74.5146637 C245.29842377 76.96347046 245.29842377 76.96347046 245.30299377 79.75221252 C245.31991272 81.34206467 245.31991272 81.34206467 245.33717346 82.96403503 C245.32502808 84.70032669 245.32502808 84.70032669 245.31263733 86.47169495 C245.32315125 88.30635818 245.32315125 88.30635818 245.33387756 90.17808533 C245.34846704 93.52959749 245.34504732 96.88012199 245.33236122 100.23157883 C245.32222961 103.73977226 245.33162733 107.24792367 245.33790588 110.75611877 C245.34518187 116.64739046 245.33559606 122.53846153 245.31654358 128.42970276 C245.29477469 135.23950051 245.30182612 142.04881924 245.3238492 148.85860538 C245.34200478 154.70672485 245.34456083 160.55470016 245.33409452 166.40283871 C245.32786037 169.89507842 245.32702154 173.38709301 245.34024048 176.87931824 C245.35394714 180.77227887 245.33494656 184.66470351 245.31263733 188.55763245 C245.32073425 189.71516022 245.32883118 190.87268799 245.33717346 192.06529236 C245.32589417 193.12519379 245.31461487 194.18509521 245.30299377 195.27711487 C245.30073162 196.65754219 245.30073162 196.65754219 245.29842377 198.06585693 C244.60858626 201.42183167 243.58936654 202.54498568 240.7950592 204.5146637 C237.53694248 205.02082157 237.53694248 205.02082157 233.59011841 205.02932739 C232.86335622 205.03627292 232.13659403 205.04321845 231.38780874 205.05037445 C228.95171383 205.06867589 226.51658933 205.05837201 224.08045959 205.04811096 C222.33430247 205.0551679 220.58815146 205.06391196 218.8420105 205.07421875 C214.09816131 205.09674832 209.3546452 205.09376465 204.61076283 205.08489728 C200.65188241 205.07979225 196.69306484 205.08707603 192.73419088 205.09436935 C183.39545649 205.11137982 174.05688546 205.10779111 164.71815491 205.09107971 C155.08068381 205.07415684 145.44366558 205.08999261 135.80624396 205.12230259 C127.5343573 205.14898493 119.26261173 205.15627817 110.99068636 205.14778751 C106.04912959 205.14285437 101.10784536 205.1450948 96.16632271 205.16557503 C91.51961302 205.18391086 86.87355552 205.17799931 82.22688103 205.15337563 C80.52128298 205.14836104 78.81563542 205.15187432 77.1100769 205.16452408 C74.78162688 205.18042776 72.45533158 205.16553258 70.12698364 205.14285278 C68.82415467 205.14226647 67.5213257 205.14168016 66.17901707 205.14107609 C61.91340505 204.35145862 60.42917984 202.89835684 57.7950592 199.5146637 C57.22743225 196.19313049 57.22743225 196.19313049 57.30677795 192.46388245 C57.31385269 191.80507584 57.32092743 191.14626923 57.32821655 190.46749878 C57.35604941 188.37786335 57.41875102 186.29097893 57.4825592 184.2021637 C57.50765716 182.77967656 57.53046772 181.35714711 57.55091858 179.93458557 C57.60583475 176.46039509 57.69202235 172.98779819 57.7950592 169.5146637 C56.46329651 169.53822937 56.46329651 169.53822937 55.10462952 169.56227112 C51.80216099 169.61348056 48.50011601 169.65105226 45.19740295 169.67945862 C43.76960074 169.69452051 42.34184461 169.71497432 40.91419983 169.74098206 C38.85874548 169.77748212 36.80390415 169.79441536 34.7481842 169.80763245 C33.51229553 169.8233429 32.27640686 169.83905334 31.00306702 169.85523987 C27.55122507 169.4887772 26.19500848 168.97543952 23.7950592 166.5146637 C22.65588703 163.09714716 22.6816744 160.47978432 22.69740295 156.87794495 C22.70062561 155.57921448 22.70384827 154.28048401 22.70716858 152.94239807 C22.71552389 151.57065262 22.72398884 150.19890782 22.7325592 148.8271637 C22.73757585 147.44370174 22.74213847 146.06023807 22.74623108 144.67677307 C22.75803391 141.28935975 22.77449902 137.90203336 22.7950592 134.5146637 C21.90721741 134.53561096 21.01937561 134.55655823 20.10462952 134.57814026 C16.80211465 134.64642047 13.50035251 134.6965124 10.19740295 134.73439026 C8.76954799 134.75447352 7.34177496 134.78174622 5.91419983 134.81642151 C3.85865552 134.86509039 1.80420065 134.88766337 -0.2518158 134.9052887 C-1.48770447 134.92623596 -2.72359314 134.94718323 -3.99693298 134.96876526 C-7.88938468 134.41777895 -8.79166633 133.54431475 -11.2049408 130.5146637 C-11.70830536 128.06585693 -11.70830536 128.06585693 -11.71287537 125.27711487 C-11.72415466 124.21721344 -11.73543396 123.15731201 -11.74705505 122.06529236 C-11.73895813 120.90776459 -11.73086121 119.75023682 -11.72251892 118.55763245 C-11.7295282 117.33452362 -11.73653748 116.11141479 -11.74375916 114.85124207 C-11.75834863 111.4997299 -11.75492891 108.1492054 -11.74224281 104.79774857 C-11.7321112 101.28955513 -11.74150892 97.78140372 -11.74778748 94.27320862 C-11.75506346 88.38193693 -11.74547765 82.49086586 -11.72642517 76.59962463 C-11.70465629 69.78982688 -11.71170771 62.98050816 -11.73373079 56.17072201 C-11.75188637 50.32260254 -11.75444242 44.47462723 -11.74397612 38.62648869 C-11.73774196 35.13424897 -11.73690313 31.64223438 -11.75012207 28.15000916 C-11.76382874 24.25704852 -11.74482815 20.36462388 -11.72251892 16.47169495 C-11.73061584 15.31416718 -11.73871277 14.1566394 -11.74705505 12.96403503 C-11.73577576 11.90413361 -11.72449646 10.84423218 -11.71287537 9.75221252 C-11.71136726 8.83192764 -11.70985916 7.91164276 -11.70830536 6.96347046 C-10.36801621 0.44312841 -5.9106451 0.01273806 0 0 Z " fill="#60B6FD" transform="translate(11.204940795898438,25.485336303710938)"/>
<path d="M0 0 C0.72746776 -0.0055344 1.45493551 -0.01106879 2.20444775 -0.0167709 C4.64291194 -0.03038801 7.08035444 -0.01540332 9.51879883 -0.00050354 C11.26657547 -0.00428635 13.01434912 -0.00978608 14.76211548 -0.01687622 C19.51005682 -0.03085312 24.25763669 -0.01964541 29.00555801 -0.00316501 C33.97115625 0.0106717 38.9367332 0.00422699 43.90234375 0.0007019 C52.24167719 -0.00200131 60.5808668 0.01148496 68.92016602 0.03465271 C78.56551422 0.06126314 88.21062189 0.06300995 97.85599422 0.05126435 C107.12942016 0.0404901 116.40275897 0.04667086 125.67617798 0.06081963 C129.62507178 0.0665825 133.57390189 0.06649438 137.52279663 0.06175423 C142.17184107 0.05698656 146.82062169 0.06707737 151.46961594 0.08870888 C153.17724086 0.09427979 154.88489112 0.09473925 156.59251785 0.08975601 C158.92085936 0.08381284 161.24839162 0.09628892 163.57666016 0.11352539 C165.5322863 0.11717023 165.5322863 0.11717023 167.52742004 0.12088871 C170.98154385 0.52373978 172.43065965 0.97402725 174.78833008 3.50120544 C175.17002897 6.25774611 175.29484573 8.61386206 175.24243164 11.36912537 C175.24301575 12.16935623 175.24359985 12.9695871 175.24420166 13.79406738 C175.24141384 16.44037688 175.21028993 19.08556138 175.17895508 21.73167419 C175.17149515 23.5658405 175.16580105 25.40001477 175.1618042 27.23419189 C175.14652831 32.06277963 175.10722974 36.89088641 175.06298828 41.71928406 C175.02207767 46.64587396 175.00380219 51.57254154 174.98364258 56.49925232 C174.94073732 66.16678139 174.8724624 75.83395343 174.78833008 85.50120544 C168.85923932 80.59375033 163.462053 75.27330376 158.05786133 69.79808044 C156.66327752 68.39408837 155.26868787 66.99010204 153.87375164 65.58646011 C150.46122864 62.1511112 147.05428561 58.71024414 143.64990234 55.26683044 C141.7286159 53.32393555 139.80467709 51.38373831 137.87785339 49.44633484 C136.06947228 47.62761668 134.26521027 45.80479151 132.4655304 43.97746277 C131.23856697 42.74543121 131.23856697 42.74543121 129.98681641 41.48851013 C128.91262199 40.40312958 128.91262199 40.40312958 127.81672668 39.29582214 C124.79837859 36.62534937 122.50504785 35.62525275 118.53833008 34.93870544 C109.56900058 36.28410487 102.45999418 46.76836817 96.27993202 53.08726501 C93.35938384 56.06933903 90.42288189 59.03566903 87.48950195 62.00511169 C83.77483228 65.76781041 80.0650135 69.53499657 76.37011719 73.31712341 C73.36530391 76.39204418 70.34616906 79.45222792 67.31685448 82.50300598 C66.16835615 83.66510242 65.02529457 84.83259812 63.88784218 86.00550842 C62.30351548 87.63792667 60.70160433 89.25088962 59.09423828 90.86058044 C58.18793167 91.78322693 57.28162506 92.70587341 56.34785461 93.65647888 C53.78833008 95.50120544 53.78833008 95.50120544 51.11444092 95.4225769 C47.8574829 94.1324973 46.05254136 92.17956992 43.62817383 89.66136169 C42.92054649 88.93812965 42.92054649 88.93812965 42.19862366 88.20028687 C40.69782726 86.66399274 39.21111878 85.11498557 37.72583008 83.56370544 C36.23530888 82.01779244 34.74190785 80.47496147 33.24232483 78.93783569 C31.88240856 77.54234229 30.53224809 76.13736151 29.18261719 74.73191833 C26.19500732 71.94841763 24.00607868 70.75029039 20.03833008 69.93870544 C11.71163227 71.37986468 4.55735334 81.64405055 -1.14916992 87.43870544 C-2.84351319 89.15839416 -4.54000269 90.87597191 -6.23901367 92.59104919 C-6.97885498 93.34249207 -7.71869629 94.09393494 -8.48095703 94.8681488 C-10.21166992 96.50120544 -10.21166992 96.50120544 -11.21166992 96.50120544 C-11.30429336 84.57504483 -11.37539615 72.64896959 -11.41891861 60.72252274 C-11.43980578 55.18475401 -11.46814435 49.64723111 -11.51342773 44.10960388 C-11.55684472 38.76686431 -11.58079852 33.4243614 -11.59117889 28.08145905 C-11.59857769 26.04165165 -11.6130256 24.0018574 -11.63459015 21.96215057 C-11.66356879 19.10802072 -11.66762822 16.25487247 -11.66577148 13.40061951 C-11.68015259 12.55473267 -11.69453369 11.70884583 -11.70935059 10.83732605 C-11.70385193 10.05772522 -11.69835327 9.27812439 -11.69268799 8.47489929 C-11.69637516 7.80014683 -11.70006233 7.12539436 -11.70386124 6.43019485 C-10.14082602 0.3043688 -5.54068357 0.00088941 0 0 Z " fill="#E9F5FE" transform="translate(11.211669921875,25.498794555664063)"/>
<path d="M0 0 C11.10828372 6.3098363 20.5894797 16.22403354 29.875 24.9375 C30.42415573 25.45224003 30.97331146 25.96698006 31.53910828 26.49731827 C43.94973587 38.22482952 55.2754837 49.17042546 56.48446655 67.11695862 C56.83448226 88.17206249 56.83448226 88.17206249 53 96 C49.28238013 99.56993099 46.98053891 100.4986433 41.85600281 100.48101807 C40.00299309 100.48926605 40.00299309 100.48926605 38.11254883 100.49768066 C36.75170507 100.48352603 35.39086526 100.46898681 34.0300293 100.45410156 C32.59088676 100.45297275 31.15174191 100.45360761 29.71260071 100.45587158 C25.81199229 100.45701836 21.91187677 100.43351541 18.01138282 100.40557575 C13.93281035 100.3805558 9.85422636 100.37821964 5.77558899 100.37347412 C-1.94503424 100.36104606 -9.66543068 100.32822684 -17.38595408 100.28807616 C-26.17668088 100.2433531 -34.96741855 100.22137008 -43.75823081 100.20129442 C-61.83897521 100.15949393 -79.91940874 100.08614381 -98 100 C-98 109.57 -98 119.14 -98 129 C-98.33 129 -98.66 129 -99 129 C-99 119.43 -99 109.86 -99 100 C-101.11921875 100.04640625 -103.2384375 100.0928125 -105.421875 100.140625 C-107.4804444 100.17184368 -109.53898717 100.19611797 -111.59765625 100.21972656 C-113.02551121 100.23980982 -114.45328425 100.26708252 -115.88085938 100.30175781 C-117.93640368 100.35042669 -119.99085855 100.37299967 -122.046875 100.390625 C-123.28276367 100.41157227 -124.51865234 100.43251953 -125.79199219 100.45410156 C-129 100 -129 100 -131.35302734 98.40771484 C-134.89312099 93.23244008 -134.64041243 86.48042423 -134.875 80.375 C-134.92185944 79.24482956 -134.92185944 79.24482956 -134.96966553 78.09182739 C-135.20248366 67.24448812 -132.97098899 60.16543444 -125.55679321 52.15844727 C-109.08150522 35.46380741 -109.08150522 35.46380741 -102.25 34.6875 C-96.07319676 35.28142339 -92.09799092 39.67317962 -87.99609375 44.01953125 C-87.09052734 44.95861328 -86.18496094 45.89769531 -85.25195312 46.86523438 C-83.83441252 48.34497597 -82.42214375 49.82886114 -81.01977539 51.32299805 C-79.65065468 52.77660601 -78.26112525 54.21090646 -76.87109375 55.64453125 C-76.05568115 56.50409424 -75.24026855 57.36365723 -74.40014648 58.24926758 C-72.1874208 60.23557244 -72.1874208 60.23557244 -69.71624756 59.94828796 C-66.02806112 58.6606797 -63.80135327 56.32104009 -61.13989258 53.578125 C-60.29505562 52.73175476 -60.29505562 52.73175476 -59.43315125 51.86828613 C-57.57743784 50.00470083 -55.73618509 48.1274717 -53.89453125 46.25 C-52.60704279 44.95250871 -51.31859193 43.65597176 -50.02922058 42.36035156 C-46.63961802 38.94982205 -43.26176438 35.52789551 -39.88665771 32.10302734 C-34.47677513 26.6178461 -29.04809959 21.15124537 -23.62161827 15.68249512 C-21.72510767 13.7682455 -19.83285579 11.84986813 -17.94136047 9.93066406 C-16.78493051 8.76101934 -15.62845417 7.59142047 -14.47192383 6.421875 C-13.94462677 5.88469849 -13.41732971 5.34752197 -12.87405396 4.79406738 C-8.47900772 0.35897423 -6.34372641 -0.52864387 0 0 Z " fill="#05E29C" transform="translate(133,60)"/>
<path d="M0 0 C4.34157052 -0.09905303 8.68253854 -0.17155301 13.02490234 -0.21972656 C14.5012559 -0.23981301 15.97753019 -0.26708801 17.45361328 -0.30175781 C19.57864962 -0.35041184 21.70263234 -0.37299673 23.828125 -0.390625 C25.7447998 -0.4220459 25.7447998 -0.4220459 27.70019531 -0.45410156 C31.66320185 0.09126631 32.55257471 0.91781913 35 4 C35.50336456 6.44880676 35.50336456 6.44880676 35.50793457 9.23754883 C35.51921387 10.29745026 35.53049316 11.35735168 35.54211426 12.44937134 C35.53401733 13.60689911 35.52592041 14.76442688 35.51757812 15.95703125 C35.5245874 17.18014008 35.53159668 18.4032489 35.53881836 19.66342163 C35.55340783 23.0149338 35.54998811 26.3654583 35.53730202 29.71691513 C35.52717041 33.22510856 35.53656813 36.73325998 35.54284668 40.24145508 C35.55012266 46.13272677 35.54053685 52.02379784 35.52148438 57.91503906 C35.49971549 64.72483682 35.50676691 71.53415554 35.52879 78.34394169 C35.54694558 84.19206116 35.54950163 90.04003646 35.53903532 95.88817501 C35.53280116 99.38041472 35.53196234 102.87242932 35.54518127 106.36465454 C35.55888794 110.25761517 35.53988736 114.15003981 35.51757812 118.04296875 C35.52567505 119.20049652 35.53377197 120.35802429 35.54211426 121.55062866 C35.53083496 122.61053009 35.51955566 123.67043152 35.50793457 124.76245117 C35.50642647 125.68273605 35.50491837 126.60302094 35.50336456 127.55119324 C34.81352705 130.90716798 33.79430734 132.03032199 31 134 C27.74188328 134.50615788 27.74188328 134.50615788 23.7950592 134.5146637 C23.06829701 134.52160922 22.34153482 134.52855475 21.59274954 134.53571075 C19.15665463 134.55401219 16.72153013 134.54370832 14.28540039 134.53344727 C12.53924327 134.5405042 10.79309226 134.54924827 9.04695129 134.55955505 C4.30310211 134.58208462 -0.44041401 134.57910096 -5.18429637 134.57023358 C-9.1431768 134.56512856 -13.10199437 134.57241233 -17.06086832 134.57970566 C-26.39960271 134.59671612 -35.73817374 134.59312741 -45.0769043 134.57641602 C-54.7143754 134.55949314 -64.35139362 134.57532892 -73.98881525 134.6076389 C-82.26070191 134.63432124 -90.53244747 134.64161447 -98.80437285 134.63312382 C-103.74592962 134.62819067 -108.68721385 134.63043111 -113.6287365 134.65091133 C-118.27544618 134.66924717 -122.92150369 134.66333561 -127.56817818 134.63871193 C-129.27377623 134.63369734 -130.97942379 134.63721063 -132.6849823 134.64986038 C-135.01343233 134.66576406 -137.33972762 134.65086889 -139.66807556 134.62818909 C-141.62231902 134.62730962 -141.62231902 134.62730962 -143.61604214 134.62641239 C-147.9759158 133.81934593 -149.43592844 132.58998574 -152 129 C-152.56762695 125.6784668 -152.56762695 125.6784668 -152.48828125 121.94921875 C-152.48120651 121.29041214 -152.47413177 120.63160553 -152.46684265 119.95283508 C-152.43900979 117.86319966 -152.37630819 115.77631524 -152.3125 113.6875 C-152.28740205 112.26501286 -152.26459148 110.84248341 -152.24414062 109.41992188 C-152.18922446 105.94573139 -152.10303685 102.4731345 -152 99 C-150.87686338 98.99503478 -150.87686338 98.99503478 -149.73103714 98.98996925 C-131.52033751 98.90878353 -113.30972287 98.81670565 -95.09914017 98.71247292 C-86.29267365 98.6623302 -77.48621652 98.61588747 -68.6796875 98.578125 C-61.00479599 98.54520564 -53.32997697 98.50537475 -45.65516543 98.45720994 C-41.59062175 98.43194438 -37.52612615 98.41016327 -33.46152496 98.39665604 C-29.6366119 98.38383619 -25.81186375 98.36178267 -21.98704147 98.33261681 C-20.58258979 98.32354042 -19.17811155 98.31785065 -17.77363205 98.31578636 C-15.85696478 98.31246444 -13.94033439 98.29581199 -12.02374268 98.2784729 C-10.95077564 98.27294214 -9.87780861 98.26741138 -8.77232742 98.26171303 C-5.97952005 97.99806665 -4.3314615 97.53160825 -2 96 C-0.32013774 92.64027548 -0.81908473 88.84096603 -0.79467773 85.14404297 C-0.78477814 84.22691528 -0.77487854 83.3097876 -0.76467896 82.36486816 C-0.73301285 79.32400115 -0.70828634 76.28311849 -0.68359375 73.2421875 C-0.66302864 71.13753852 -0.64203229 69.03289371 -0.62062073 66.92825317 C-0.56535435 61.38148369 -0.51596522 55.83467666 -0.46777344 50.2878418 C-0.41759172 44.63066251 -0.3618883 38.97353793 -0.30664062 33.31640625 C-0.19900321 22.21098421 -0.09757066 11.10551472 0 0 Z " fill="#FEC244" transform="translate(221,96)"/>
<path d="M0 0 C1.7492214 -0.08142927 3.49954542 -0.13938541 5.25 -0.1875 C6.22453125 -0.22230469 7.1990625 -0.25710937 8.203125 -0.29296875 C11.42776918 0.04480822 12.70790797 0.74470761 15 3 C15.9876501 5.96295031 16.11990896 7.84163326 16.10864258 10.92944336 C16.10708664 11.97644913 16.1055307 13.0234549 16.10392761 14.10218811 C16.09670181 15.27373947 16.08947601 16.44529083 16.08203125 17.65234375 C16.07782669 18.90869125 16.07362213 20.16503876 16.06929016 21.4594574 C16.0561415 25.13801416 16.03542775 28.81650226 16.01386261 32.49501801 C15.99929097 35.12812215 15.98734561 37.76122813 15.97601318 40.39434814 C15.92725026 51.57642513 15.85855385 62.75816095 15.76426506 73.93995094 C15.71905628 79.33666325 15.67980209 84.73328615 15.65356445 90.13012695 C15.62762171 95.43510762 15.5873626 100.73979814 15.53681374 106.04459953 C15.52017583 108.04804868 15.50864245 110.05154716 15.50238609 112.05505562 C15.49280254 114.82941965 15.46484001 117.60302007 15.43237305 120.37719727 C15.43380814 121.19622528 15.43524323 122.0152533 15.4367218 122.85910034 C15.38229628 126.13431471 15.23423562 128.56696013 13.66047668 131.47642517 C10.22604024 134.62770153 6.40873803 134.13023929 1.98451233 134.14044189 C0.90684299 134.14489858 0.90684299 134.14489858 -0.19259745 134.1494453 C-2.60619323 134.15813482 -5.01973942 134.15964074 -7.43334961 134.16113281 C-9.16127122 134.16576072 -10.88919181 134.17078535 -12.61711121 134.17617798 C-17.31539901 134.1893046 -22.01367253 134.19574718 -26.71197581 134.20018864 C-29.64562279 134.20311829 -32.57926584 134.20722284 -35.51291084 134.21169281 C-44.68699658 134.22536699 -53.86107337 134.23503465 -63.03516859 134.2388947 C-73.63437967 134.24337865 -84.23346199 134.2609425 -94.83263391 134.2898953 C-103.02037762 134.31148689 -111.20808503 134.32159759 -119.39585692 134.32293582 C-124.28871931 134.32398545 -129.18146065 134.32992695 -134.07429314 134.34775543 C-138.67485847 134.36419307 -143.27521119 134.36641268 -147.87579536 134.35761642 C-149.56569614 134.35684379 -151.25560814 134.3612184 -152.94548035 134.37107468 C-155.24975198 134.38372805 -157.55326299 134.37795408 -159.85752869 134.36749268 C-161.14782958 134.36895924 -162.43813047 134.3704258 -163.76753139 134.3719368 C-167.27198735 133.96870438 -168.74693879 133.72081069 -171 131 C-171.390625 127.86328125 -171.390625 127.86328125 -171.25 124.3125 C-171.21390625 123.13300781 -171.1778125 121.95351562 -171.140625 120.73828125 C-171.09421875 119.83464844 -171.0478125 118.93101562 -171 118 C-170.14209208 117.99853344 -169.28418417 117.99706688 -168.40027905 117.99555588 C-147.54447023 117.95853604 -126.68882456 117.89958562 -105.833148 117.81609726 C-95.74756789 117.77625441 -85.66206639 117.74388864 -75.57641602 117.72900391 C-66.78777707 117.71601451 -57.99931074 117.68911956 -49.210769 117.64538693 C-44.55543135 117.62271085 -39.90030707 117.60709298 -35.24490929 117.60811615 C-30.86586255 117.60885915 -26.48728858 117.59105427 -22.10836411 117.55883217 C-20.49870139 117.5502918 -18.8889859 117.54861112 -17.27931023 117.55419731 C-15.08589144 117.56079716 -12.89399475 117.54301676 -10.70072937 117.51898193 C-8.8576043 117.51345118 -8.8576043 117.51345118 -6.97724438 117.50780869 C-3.94933977 117.26798953 -3.94933977 117.26798953 -2.10612488 115.26574707 C-0.85812996 112.70939844 -0.61702934 111.06528057 -0.60127258 108.22906494 C-0.58873444 107.27276688 -0.57619629 106.31646881 -0.5632782 105.33119202 C-0.56471329 104.28893967 -0.56614838 103.24668732 -0.56762695 102.17285156 C-0.5574353 101.07011398 -0.54724365 99.9673764 -0.53674316 98.83122253 C-0.5065358 95.18430552 -0.49733514 91.53765085 -0.48828125 87.890625 C-0.47144036 85.36284507 -0.45329092 82.83507354 -0.43388367 80.30731201 C-0.39117648 74.33277838 -0.36167312 68.35832047 -0.33856028 62.3836906 C-0.31150676 55.58074435 -0.26759541 48.77793955 -0.22227156 41.97509432 C-0.1294301 27.98347303 -0.05774714 13.99180699 0 0 Z " fill="#28A5FC" transform="translate(206,61)"/>
<path d="M0 0 C34.32 0 68.64 0 104 0 C104.99 7.92 104.99 7.92 106 16 C107.60317141 22.48555709 109.57414296 27.32961594 113 33 C113 33.66 113 34.32 113 35 C99.00500624 35.11685348 85.01008824 35.20466524 71.01470661 35.25906086 C64.51622422 35.28516666 58.0180693 35.32058392 51.51977539 35.37719727 C45.24983179 35.43148006 38.98020338 35.46141313 32.71004295 35.47438622 C30.31658146 35.48363265 27.92313744 35.50168863 25.52980995 35.52865028 C22.18005572 35.56488937 18.83160782 35.56994727 15.48168945 35.56762695 C14.48978607 35.58560333 13.49788269 35.60357971 12.47592163 35.62210083 C11.56031967 35.61522751 10.64471771 35.60835419 9.70137024 35.60127258 C8.90955007 35.60588155 8.11772989 35.61049051 7.30191517 35.61523914 C5 35 5 35 0 30 C0 20.1 0 10.2 0 0 Z " fill="#FDCF5A" transform="translate(69,195)"/>
<path d="M0 0 C6.19424315 2.77986892 11.81027829 6.91051469 15 13 C16.65923411 19.46822577 16.33426929 26.2121715 16.10449219 32.83618164 C15.99937098 35.9561694 15.98145875 39.06784974 15.9765625 42.18945312 C15.94775642 44.1771629 15.91407698 46.16480936 15.875 48.15234375 C15.86194824 49.54609474 15.86194824 49.54609474 15.84863281 50.96800232 C15.79594238 52.26569298 15.79594238 52.26569298 15.7421875 53.58959961 C15.7201123 54.34695908 15.69803711 55.10431854 15.67529297 55.8846283 C14.64966036 59.09744747 12.76510794 60.15336084 10 62 C7.10462475 62.49219131 7.10462475 62.49219131 3.85600281 62.48101807 C2.00299309 62.48926605 2.00299309 62.48926605 0.11254883 62.49768066 C-1.24829493 62.48352603 -2.60913474 62.46898681 -3.9699707 62.45410156 C-5.40911324 62.45297275 -6.84825809 62.45360761 -8.28739929 62.45587158 C-12.18800771 62.45701836 -16.08812323 62.43351541 -19.98861718 62.40557575 C-24.06718965 62.3805558 -28.14577364 62.37821964 -32.22441101 62.37347412 C-39.94503424 62.36104606 -47.66543068 62.32822684 -55.38595408 62.28807616 C-64.17668088 62.2433531 -72.96741855 62.22137008 -81.75823081 62.20129442 C-99.83897521 62.15949393 -117.91940874 62.08614381 -136 62 C-136 71.57 -136 81.14 -136 91 C-136.33 91 -136.66 91 -137 91 C-137 81.43 -137 71.86 -137 62 C-139.11921875 62.04640625 -141.2384375 62.0928125 -143.421875 62.140625 C-145.4804444 62.17184368 -147.53898717 62.19611797 -149.59765625 62.21972656 C-151.02551121 62.23980982 -152.45328425 62.26708252 -153.88085938 62.30175781 C-155.93640368 62.35042669 -157.99085855 62.37299967 -160.046875 62.390625 C-161.90070801 62.4220459 -161.90070801 62.4220459 -163.79199219 62.45410156 C-167 62 -167 62 -169.43457031 60.66308594 C-171.27726918 57.52831375 -171.16371741 55.92479459 -171.09783936 52.33355713 C-171.0837138 51.33664982 -171.06958824 50.33974251 -171.05503464 49.31262589 C-171.03687321 48.54945934 -171.01871178 47.7862928 -171 47 C-170.15424314 46.99945523 -169.30848627 46.99891047 -168.43710041 46.99834919 C-147.86431269 46.98338627 -127.29174181 46.94095925 -106.7190752 46.86790943 C-96.77029274 46.83324641 -86.82164902 46.80790219 -76.87280273 46.80444336 C-68.2020477 46.80140529 -59.53153968 46.78093603 -50.86088008 46.73947543 C-46.26914549 46.71812939 -41.67776222 46.705553 -37.08597755 46.71384621 C-32.76429622 46.72137628 -28.44332731 46.70560665 -24.12177658 46.67193985 C-22.5355292 46.66369389 -20.94921113 46.66397162 -19.36297035 46.67340279 C-17.1962429 46.68501021 -15.03185609 46.66593468 -12.86531067 46.63923645 C-11.65315289 46.63647107 -10.44099512 46.63370569 -9.19210529 46.63085651 C-5.09457814 45.82106127 -3.599061 44.19504629 -1 41 C-0.26134746 38.86992803 -0.26134746 38.86992803 -0.34057617 36.66870117 C-0.31111153 35.43799141 -0.31111153 35.43799141 -0.28105164 34.18241882 C-0.28498428 33.3114003 -0.28891693 32.44038177 -0.29296875 31.54296875 C-0.27028679 30.18852409 -0.27028679 30.18852409 -0.24714661 28.80671692 C-0.20428851 25.93339021 -0.19543351 23.06111442 -0.1875 20.1875 C-0.1643542 18.23499814 -0.13898869 16.28252124 -0.11132812 14.33007812 C-0.04849442 9.55329259 -0.01614441 4.77716228 0 0 Z " fill="#0ED08F" transform="translate(171,98)"/>
<path d="M0 0 C5.86499413 0.99011891 10.8062168 2.62488874 15 7 C16.44836402 11.92581007 16.26488865 16.79693749 16.1171875 21.8828125 C16.10867841 23.34437369 16.10402915 24.80596197 16.10305786 26.26754761 C16.09075436 29.32333841 16.04551352 32.37618019 15.97412109 35.43115234 C15.88340755 39.34345417 15.85406086 43.25309682 15.84664726 47.16635323 C15.83778358 50.18120453 15.80716901 53.19549999 15.7688942 56.21010971 C15.75116395 57.65254027 15.73768735 59.09502971 15.72857285 60.53754044 C15.71045191 62.55282156 15.6622831 64.56776469 15.61279297 66.58251953 C15.58087357 68.30077438 15.58087357 68.30077438 15.54830933 70.05374146 C15 73 15 73 13.39169312 75.37271118 C10.15922793 77.57205457 8.01599597 77.48212947 4.12011719 77.45410156 C3.43678314 77.45468567 2.7534491 77.45526978 2.04940796 77.45587158 C-0.20195899 77.453092 -2.45199032 77.42200908 -4.703125 77.390625 C-6.266818 77.38316209 -7.83052037 77.37746939 -9.39422607 77.37347412 C-13.50441433 77.35822154 -17.61403471 77.3189436 -21.72399902 77.2746582 C-25.92008787 77.23369701 -30.11626873 77.21546133 -34.3125 77.1953125 C-42.5419269 77.15244842 -50.77089275 77.08420233 -59 77 C-59.98753064 75.27559635 -60.96468806 73.54524974 -61.9375 71.8125 C-62.48277344 70.84957031 -63.02804688 69.88664062 -63.58984375 68.89453125 C-64.90579333 66.19337158 -65.57301887 63.95643899 -66 61 C-65.2446698 60.99635437 -64.4893396 60.99270874 -63.71112061 60.98895264 C-56.58946433 60.95107077 -49.46833106 60.89421699 -42.34701157 60.81609726 C-38.68591277 60.77660357 -35.02505515 60.74442479 -31.36376953 60.72900391 C-27.82973078 60.71384913 -24.29635499 60.67942639 -20.76261139 60.63169098 C-18.75971038 60.60965376 -16.75662244 60.60752524 -14.75360107 60.60565186 C-13.53263733 60.58593323 -12.31167358 60.5662146 -11.05371094 60.54589844 C-9.97893494 60.53701599 -8.90415894 60.52813354 -7.79681396 60.51898193 C-4.2565837 59.86205031 -3.08385337 58.91422992 -1 56 C-0.38778351 53.34762039 -0.38778351 53.34762039 -0.45410156 50.40527344 C-0.43438293 49.28441345 -0.41466431 48.16355347 -0.39434814 47.00872803 C-0.39311951 45.80444153 -0.39189087 44.60015503 -0.390625 43.359375 C-0.37408875 42.12205627 -0.35755249 40.88473755 -0.34051514 39.60992432 C-0.30017615 36.32848469 -0.27685239 33.0475037 -0.26177979 29.76586914 C-0.24219329 26.41404159 -0.19989103 23.06258686 -0.16015625 19.7109375 C-0.08615371 13.14069517 -0.0345809 6.57056166 0 0 Z " fill="#FDB237" transform="translate(241,153)"/>
<path d="M0 0 C10.23 0 20.46 0 31 0 C35 4 35 4 35.48101807 6.7588501 C35.4676944 8.34436676 35.4676944 8.34436676 35.45410156 9.96191406 C35.45379944 11.16285706 35.45349731 12.36380005 35.45318604 13.60113525 C35.43254089 14.89291687 35.41189575 16.18469849 35.390625 17.515625 C35.38316071 18.85511429 35.37746866 20.19461452 35.37347412 21.53411865 C35.35823213 25.05251436 35.31896418 28.57024515 35.2746582 32.08837891 C35.23367364 35.68122361 35.2154564 39.2741762 35.1953125 42.8671875 C35.15246745 49.91172966 35.08423446 56.95582132 35 64 C34.04375732 63.51063965 33.08751465 63.0212793 32.10229492 62.51708984 C30.83262481 61.87316477 29.56284353 61.22945887 28.29296875 60.5859375 C27.6645105 60.26359131 27.03605225 59.94124512 26.3885498 59.60913086 C17.82424976 55.28361375 10.77201599 54.88836509 1 54 C1 66.87 1 79.74 1 93 C0.67 93 0.34 93 0 93 C0 62.31 0 31.62 0 0 Z " fill="#FACF5D" transform="translate(221,96)"/>
<path d="M0 0 C2.5119859 2.5119859 2.23524138 4.02632841 2.24884033 7.45266724 C2.24164978 8.21223724 2.23445923 8.97180725 2.22705078 9.75439453 C2.22734283 10.55447937 2.22763489 11.35456421 2.22793579 12.17889404 C2.22653956 14.83030953 2.2109647 17.48144594 2.1953125 20.1328125 C2.19158341 21.96841274 2.18873595 23.80401498 2.18673706 25.63961792 C2.1790924 30.47627232 2.1594368 35.31280703 2.1373291 40.14941406 C2.11688857 45.08266582 2.10773919 50.01593687 2.09765625 54.94921875 C2.07619167 64.63286515 2.04204572 74.31642263 2 84 C0.34553098 82.62127582 -1.3014912 81.23278796 -2.91320801 79.80432129 C-4.97407722 77.97139711 -4.97407722 77.97139711 -7.21862793 76.3861084 C-10.87296845 73.43027995 -12.74281332 71.27479503 -13.68774414 66.59106445 C-13.92663592 62.33783845 -13.90155983 58.16092067 -13.78125 53.90625 C-13.76630764 52.3482963 -13.75493004 50.79030471 -13.74694824 49.2322998 C-13.71656878 45.15423695 -13.63813716 41.0784955 -13.54931641 37.00134277 C-13.46711265 32.83194375 -13.43086376 28.66216529 -13.390625 24.4921875 C-13.30512137 16.32706593 -13.16879581 8.16382264 -13 0 C-3.84725131 -1.24469895 -3.84725131 -1.24469895 0 0 Z " fill="#D7EBFD" transform="translate(184,27)"/>
<path d="M0 0 C5.01791684 2.41935276 8.49958655 5.9991731 11 11 C11.52779267 17.2117137 11.74403643 22.758349 8 28 C3.59941746 32.41260598 -0.09407636 34.14908361 -6.3125 34.3125 C-11.37478087 34.25907223 -14.14510059 33.47881166 -18 30 C-22.83106777 24.51608524 -23.35024743 21.19460601 -23.28125 13.984375 C-22.77938024 8.65897925 -20.24614624 6.0977955 -16.375 2.6875 C-11.25527798 -0.95019722 -6.13002394 -0.57769859 0 0 Z " fill="#FEC345" transform="translate(69,47)"/>
<path d="M0 0 C1.22589844 0.01353516 1.22589844 0.01353516 2.4765625 0.02734375 C3.41628906 0.04474609 3.41628906 0.04474609 4.375 0.0625 C7.18963812 4.8699019 6.98956494 9.63896444 6.375 15.0625 C4.64696704 20.42332952 1.23374377 23.3746843 -3.625 26.0625 C-7.09825181 27.2202506 -9.98567448 27.13116652 -13.625 27.0625 C-16.61384787 22.06514637 -16.23768144 16.70522041 -15.625 11.0625 C-12.44301029 4.46281763 -7.42350146 -0.10605002 0 0 Z " fill="#FED15B" transform="translate(61.625,46.9375)"/>
<path d="M0 0 C2.375 0.75 2.375 0.75 3.375 1.75 C3.46169432 3.2387186 3.48203494 4.731445 3.47265625 6.22265625 C3.46943359 7.12177734 3.46621094 8.02089844 3.46289062 8.94726562 C3.45451172 9.89279297 3.44613281 10.83832031 3.4375 11.8125 C3.43298828 12.76189453 3.42847656 13.71128906 3.42382812 14.68945312 C3.4120011 17.04303065 3.39552025 19.39648477 3.375 21.75 C3.97562256 21.74476318 4.57624512 21.73952637 5.19506836 21.73413086 C7.90086838 21.71341986 10.60665177 21.70035875 13.3125 21.6875 C14.25802734 21.67912109 15.20355469 21.67074219 16.17773438 21.66210938 C17.52641602 21.65727539 17.52641602 21.65727539 18.90234375 21.65234375 C20.15132446 21.64448853 20.15132446 21.64448853 21.42553711 21.63647461 C23.375 21.75 23.375 21.75 24.375 22.75 C24.5 25.75 24.5 25.75 24.375 28.75 C21.78082925 31.34417075 14.48863124 29.98463158 11 30 C9.83726563 30.020625 8.67453125 30.04125 7.4765625 30.0625 C5.8059375 30.07023437 5.8059375 30.07023437 4.1015625 30.078125 C3.07627441 30.0874707 2.05098633 30.09681641 0.99462891 30.10644531 C-1.625 29.75 -1.625 29.75 -3.42041016 28.41699219 C-6.628295 23.97770607 -5.84703652 18.4721806 -5.875 13.25 C-5.895625 12.28707031 -5.91625 11.32414063 -5.9375 10.33203125 C-5.94265625 9.40777344 -5.9478125 8.48351562 -5.953125 7.53125 C-5.9624707 6.68626953 -5.97181641 5.84128906 -5.98144531 4.97070312 C-5.625 2.75 -5.625 2.75 -4.26855469 0.93554688 C-2.625 -0.25 -2.625 -0.25 0 0 Z " fill="#82BCED" transform="translate(16.625,188.25)"/>
<path d="M0 0 C1.16273438 -0.020625 2.32546875 -0.04125 3.5234375 -0.0625 C5.1940625 -0.07023437 5.1940625 -0.07023437 6.8984375 -0.078125 C7.92372559 -0.0874707 8.94901367 -0.09681641 10.00537109 -0.10644531 C12.625 0.25 12.625 0.25 14.42041016 1.58300781 C17.628295 6.02229393 16.84703652 11.5278194 16.875 16.75 C16.895625 17.71292969 16.91625 18.67585938 16.9375 19.66796875 C16.94265625 20.59222656 16.9478125 21.51648438 16.953125 22.46875 C16.96714355 23.7362207 16.96714355 23.7362207 16.98144531 25.02929688 C16.625 27.25 16.625 27.25 15.26855469 29.06445312 C13.625 30.25 13.625 30.25 11 30 C8.625 29.25 8.625 29.25 7.625 28.25 C7.53830568 26.7612814 7.51796506 25.268555 7.52734375 23.77734375 C7.53056641 22.87822266 7.53378906 21.97910156 7.53710938 21.05273438 C7.54548828 20.10720703 7.55386719 19.16167969 7.5625 18.1875 C7.56701172 17.23810547 7.57152344 16.28871094 7.57617188 15.31054688 C7.5879989 12.95696935 7.60447975 10.60351523 7.625 8.25 C7.02437744 8.25523682 6.42375488 8.26047363 5.80493164 8.26586914 C3.09913162 8.28658014 0.39334823 8.29964125 -2.3125 8.3125 C-3.25802734 8.32087891 -4.20355469 8.32925781 -5.17773438 8.33789062 C-6.52641602 8.34272461 -6.52641602 8.34272461 -7.90234375 8.34765625 C-8.73499756 8.35289307 -9.56765137 8.35812988 -10.42553711 8.36352539 C-12.375 8.25 -12.375 8.25 -13.375 7.25 C-13.5 4.25 -13.5 4.25 -13.375 1.25 C-10.78082925 -1.34417075 -3.48863124 0.01536842 0 0 Z " fill="#82BBED" transform="translate(228.375,37.75)"/>
</svg>
